<?xml version="1.0" ?><svg id="flat" viewBox="0 0 64 64" xmlns="http://www.w3.org/2000/svg"><defs><style>.cls-1{fill:#fdd020;}.cls-2{fill:#a3d4f7;}</style></defs><circle class="cls-1" cx="38" cy="26" r="15"/><path class="cls-1" d="M38,8a1,1,0,0,1-1-1V3a1,1,0,0,1,2,0V7A1,1,0,0,1,38,8Z"/><path class="cls-1" d="M61,27H57a1,1,0,0,1,0-2h4a1,1,0,0,1,0,2Z"/><path class="cls-2" d="M50,39a11,11,0,0,0-2.178.218,8.983,8.983,0,0,0-12.581-6.387A11.989,11.989,0,0,0,12.7,41.015,9.995,9.995,0,0,0,13,61H50a11,11,0,0,0,0-22Z"/><line class="cls-1" x1="24" x2="20" y1="12" y2="8"/><path class="cls-1" d="M24,13a1,1,0,0,1-.707-.293l-4-4a1,1,0,1,1,1.414-1.414l4,4A1,1,0,0,1,24,13Z"/><line class="cls-1" x1="52" x2="56" y1="12" y2="8"/><path class="cls-1" d="M52,13a1,1,0,0,1-.707-1.707l4-4a1,1,0,1,1,1.414,1.414l-4,4A1,1,0,0,1,52,13Z"/></svg>