<?xml version="1.0" ?><svg id="flat" viewBox="0 0 64 64" xmlns="http://www.w3.org/2000/svg"><defs><style>.cls-1{fill:#60a2d7;}.cls-2{fill:#a3d4f7;}</style></defs><path class="cls-1" d="M50,42.357C50,52.653,41.941,61,32,61S14,52.653,14,42.357,32,3,32,3,50,32.061,50,42.357Z"/><path class="cls-2" d="M27,52a1,1,0,0,1-.813-1.581l10-14a1,1,0,0,1,1.628,1.162l-10,14A1,1,0,0,1,27,52Z"/><path class="cls-2" d="M27,44c-1.682,0-3-1.757-3-4s1.318-4,3-4,3,1.757,3,4S28.682,44,27,44Zm0-6c-.408,0-1,.779-1,2s.592,2,1,2,1-.779,1-2S27.408,38,27,38Z"/><path class="cls-2" d="M37,52c-1.682,0-3-1.757-3-4s1.318-4,3-4,3,1.757,3,4S38.682,52,37,52Zm0-6c-.408,0-1,.779-1,2s.592,2,1,2,1-.779,1-2S37.408,46,37,46Z"/></svg>