<?xml version="1.0" ?><svg id="flat" viewBox="0 0 64 64" xmlns="http://www.w3.org/2000/svg"><defs><style>.cls-1{fill:#a3d4f7;}.cls-2{fill:#92aeba;}.cls-3{fill:#ff5b42;}</style></defs><path class="cls-1" d="M36,48V7a4,4,0,0,0-4-4h0a4,4,0,0,0-4,4V48a7.5,7.5,0,0,0-3,6,7,7,0,0,0,14,0A7.5,7.5,0,0,0,36,48Z"/><path class="cls-2" d="M46,45H40a1,1,0,0,1,0-2h6a1,1,0,0,1,0,2Z"/><path class="cls-2" d="M44,41H40a1,1,0,0,1,0-2h4a1,1,0,0,1,0,2Z"/><path class="cls-2" d="M46,37H40a1,1,0,0,1,0-2h6a1,1,0,0,1,0,2Z"/><path class="cls-2" d="M44,33H40a1,1,0,0,1,0-2h4a1,1,0,0,1,0,2Z"/><path class="cls-2" d="M46,29H40a1,1,0,0,1,0-2h6a1,1,0,0,1,0,2Z"/><path class="cls-2" d="M44,25H40a1,1,0,0,1,0-2h4a1,1,0,0,1,0,2Z"/><path class="cls-2" d="M46,21H40a1,1,0,0,1,0-2h6a1,1,0,0,1,0,2Z"/><path class="cls-2" d="M44,17H40a1,1,0,0,1,0-2h4a1,1,0,0,1,0,2Z"/><path class="cls-2" d="M46,13H40a1,1,0,0,1,0-2h6a1,1,0,0,1,0,2Z"/><path class="cls-3" d="M33,50.127V27a1,1,0,0,0-2,0V50.127A3.8,3.8,0,0,0,28,53.9a4,4,0,1,0,8,0A3.8,3.8,0,0,0,33,50.127Z"/></svg>